# This file uses centimeters as units for non-parametric coordinates.

mtllib floor_square_1.mtl
g default
v 0.000000 -0.250000 0.000000
v 0.000000 -0.250000 -5.000000
v 5.001038 -0.250000 0.000000
v 5.001038 -0.250000 -5.000000
v 5.001038 0.034805 0.000000
v 5.001038 0.034805 -5.000000
v 0.000000 0.034805 0.000000
v 0.000000 0.034805 -5.000000
vt 0.006855 1.009778
vt 0.990072 1.009778
vt 0.990072 1.992996
vt 0.006855 1.992996
vt 0.007011 1.262543
vt 0.988485 1.262543
vt 0.988485 1.356378
vt 0.007011 1.356378
vt 0.006855 1.992996
vt 0.990072 1.992996
vt 0.990072 1.009778
vt 0.006855 1.009778
vt 0.007011 1.356378
vt 0.988485 1.356378
vt 0.988485 1.262543
vt 0.007011 1.262543
vt 0.900723 1.992421
vt 0.900723 1.009569
vt 0.988672 1.009569
vt 0.988672 1.992421
vt 0.988672 1.009569
vt 0.900723 1.009569
vt 0.900723 1.992421
vt 0.988672 1.992421
vn 0.000000 -1.000000 0.000000
vn 0.000000 -1.000000 0.000000
vn 0.000000 -1.000000 0.000000
vn 0.000000 -1.000000 0.000000
vn 1.000000 0.000000 0.000000
vn 1.000000 0.000000 0.000000
vn 1.000000 0.000000 0.000000
vn 1.000000 0.000000 0.000000
vn 0.000000 1.000000 0.000000
vn 0.000000 1.000000 0.000000
vn 0.000000 1.000000 0.000000
vn 0.000000 1.000000 0.000000
vn -1.000000 0.000000 0.000000
vn -1.000000 0.000000 0.000000
vn -1.000000 0.000000 0.000000
vn -1.000000 0.000000 0.000000
vn 0.000000 0.000000 -1.000000
vn 0.000000 0.000000 -1.000000
vn 0.000000 0.000000 -1.000000
vn 0.000000 0.000000 -1.000000
vn 0.000000 0.000000 1.000000
vn 0.000000 0.000000 1.000000
vn 0.000000 0.000000 1.000000
vn 0.000000 0.000000 1.000000
s off
g floor_squre:SM_Bld_Castle_Floor_Stone_63
usemtl phong2SG
f 1/1/1 2/2/2 4/3/3 3/4/4
f 3/5/5 4/6/6 6/7/7 5/8/8
f 5/9/9 6/10/10 8/11/11 7/12/12
f 7/13/13 8/14/14 2/15/15 1/16/16
f 4/17/17 2/18/18 8/19/19 6/20/20
f 7/21/21 1/22/22 3/23/23 5/24/24
