# This file uses centimeters as units for non-parametric coordinates.

mtllib floor_round_corner_2x.mtl
g default
v 0.000000 -0.250000 -0.000000
v 0.001538 -0.250000 -10.000000
v 10.002075 -0.250000 -0.000500
v 10.002075 0.034805 -0.000500
v 0.000000 0.034804 0.000000
v 0.001538 0.034805 -10.000000
v 8.699123 -0.250000 -4.638348
v 9.431186 -0.250000 -2.870930
v 8.699123 0.034805 -4.638348
v 9.431186 0.034805 -2.870930
v 6.262542 -0.250000 -7.613183
v 7.615258 -0.250000 -6.260467
v 7.615258 0.034805 -6.260467
v 6.262542 0.034805 -7.613183
v 2.872990 -0.250000 -9.429062
v 4.640427 -0.250000 -8.697045
v 2.872990 0.034805 -9.429062
v 4.640427 0.034805 -8.697045
vt 0.007011 1.356378
vt 0.988485 1.356378
vt 0.988485 1.262543
vt 0.007011 1.262543
vt 0.988672 1.009569
vt 0.900723 1.009569
vt 0.900723 1.992421
vt 0.988672 1.992421
vt 0.451449 1.454372
vt 0.867194 1.992995
vt 0.621390 1.992995
vt 0.375638 1.992996
vt 0.006904 1.992996
vt 0.867195 1.992996
vt 0.006904 1.992996
vt 0.375638 1.992996
vt 0.621390 1.992996
vt 0.990072 1.378695
vt 0.990072 1.624391
vt 0.990072 1.870144
vt 0.990072 1.009929
vt 0.990072 1.009929
vt 0.451449 1.454373
vt 0.990072 1.870144
vt 0.990072 1.624391
vt 0.990072 1.378695
vt 0.007060 1.262543
vt 0.375141 1.262543
vt 0.007060 1.356378
vt 0.620457 1.356378
vt 0.988672 1.869615
vt 0.900723 1.869615
vt 0.900723 1.623953
vt 0.988672 1.378349
vt 0.900723 1.009720
vt 0.988672 1.009720
vt 0.620457 1.262543
vt 0.375141 1.356378
vt 0.865826 1.262543
vt 0.988485 1.356378
vt 0.900723 1.378349
vt 0.988672 1.623953
vt 0.965032 1.262543
vt 0.988485 1.262543
vt 0.965032 1.356378
vt 0.865826 1.356378
vn -1.000000 0.000000 0.000000
vn -1.000000 0.000000 0.000000
vn -1.000000 0.000000 0.000000
vn -1.000000 0.000000 0.000000
vn 0.000000 0.000000 1.000000
vn 0.000000 0.000000 1.000000
vn 0.000000 0.000000 1.000000
vn 0.000000 0.000000 1.000000
vn 0.980790 0.000000 -0.195066
vn 0.962729 0.000000 -0.270468
vn 0.962729 0.000000 -0.270468
vn 0.980790 0.000000 -0.195066
vn 0.881469 0.000000 -0.472243
vn 0.881469 0.000000 -0.472243
vn 0.773623 0.000000 -0.633647
vn 0.773623 0.000000 -0.633647
vn 0.633647 0.000000 -0.773623
vn 0.633647 0.000000 -0.773623
vn 0.472231 0.000000 -0.881475
vn 0.472231 0.000000 -0.881475
vn 0.270412 0.000000 -0.962745
vn 0.270412 0.000000 -0.962745
vn 0.195015 0.000000 -0.980800
vn 0.195015 0.000000 -0.980800
vn -0.000000 1.000000 0.000000
vn -0.000000 1.000000 0.000000
vn -0.000000 1.000000 0.000000
vn -0.000000 1.000000 0.000000
vn 0.000000 -1.000000 -0.000000
vn 0.000000 -1.000000 -0.000000
vn 0.000000 -1.000000 0.000000
vn 0.000000 -1.000000 -0.000000
vn -0.000000 1.000000 0.000000
vn -0.000000 1.000000 0.000000
vn 0.000000 -1.000000 -0.000000
vn 0.000000 -1.000000 -0.000000
vn 0.000000 -1.000000 -0.000000
vn -0.000000 1.000000 0.000000
vn -0.000000 1.000000 0.000000
vn -0.000000 1.000000 0.000000
vn 0.000000 -1.000000 -0.000000
vn 0.000000 -1.000000 -0.000000
s off
g SM_Bld_Castle_Floor_Stone_63
usemtl phong2SG
f 5/1/1 6/2/2 2/3/3 1/4/4
f 5/5/5 1/6/6 3/7/7 4/8/8
s 1
f 3/27/9 8/28/10 10/38/11 4/29/12
f 9/30/13 7/37/14 12/39/15 13/46/16
f 14/31/17 11/32/18 16/33/19 18/42/20
f 17/34/21 15/41/22 2/35/23 6/36/24
s 2
f 17/26/25 5/23/26 14/24/27 18/25/28
s 3
f 1/9/29 12/10/30 7/11/31 8/12/32
s 2
f 10/16/33 5/23/26 4/15/34
s 3
f 15/18/35 1/9/29 2/21/36
s 1
f 8/28/10 7/37/14 9/30/13 10/38/11
f 12/39/15 11/44/18 14/40/17 13/46/16
f 16/33/19 15/41/22 17/34/21 18/42/20
s 3
f 1/43/29 11/44/37 12/39/30
s 2
f 5/45/26 13/46/38 14/40/27
f 13/14/38 5/23/26 10/16/33 9/17/39
f 6/22/40 5/23/26 17/26/25
s 3
f 1/9/29 8/12/32 3/13/41
f 15/18/35 16/19/42 11/20/37 1/9/29
