# This file uses centimeters as units for non-parametric coordinates.

mtllib flag_skinny_1.mtl
g default
v 3.519293 -66.090508 0.000000
v 3.519293 0.000000 0.000000
v 3.519293 -33.210552 0.000000
v 3.519291 -49.277618 0.000000
v 3.519293 -16.633659 0.000000
v -0.156933 -42.736118 0.000000
v 0.018358 -33.093193 0.000000
v 3.519293 -42.135921 0.000000
v 0.018358 -50.411705 0.000000
v -0.087511 -59.090008 0.000000
v 3.519293 -56.517914 0.000000
v 0.018358 -70.709190 0.000000
v 0.018358 -8.316830 0.000000
v 0.018358 0.000000 0.000000
v 3.519293 -8.316830 0.000000
v 0.018358 -16.633659 0.000000
v 0.018358 -24.950489 0.000000
v 3.519293 -24.950489 0.000000
v -3.482576 -32.962101 0.000000
v -3.482576 -43.269894 0.000000
v -3.482576 -24.946625 0.000000
v -3.482576 -16.633659 0.000000
v -3.482576 -8.316830 0.000000
v -3.482576 0.000000 0.000000
v -3.482576 -52.145504 0.000000
v -3.482576 -62.470177 0.000000
v -3.482576 -76.444260 0.000000
vt 0.564461 0.485941
vt 0.605078 0.491908
vt 0.609248 0.606723
vt 0.566817 0.608713
vt 0.605580 0.399830
vt 0.602425 0.295063
vt 0.647145 0.325739
vt 0.648565 0.413027
vt 0.572368 0.898124
vt 0.614406 0.897698
vt 0.616114 0.994075
vt 0.574217 0.994498
vt 0.612686 0.800673
vt 0.610955 0.702995
vt 0.653277 0.702563
vt 0.654867 0.800244
vt 0.649958 0.498622
vt 0.651688 0.604896
vt 0.562418 0.379398
vt 0.601215 0.153587
vt 0.645254 0.209534
vt 0.560022 0.254481
vt 0.556746 0.083712
vt 0.656445 0.897271
vt 0.658014 0.993651
vt 0.570507 0.801102
vt 0.568634 0.703473
vn 0.000000 0.000000 -1.000000
vn 0.000000 0.000000 -1.000000
vn 0.000000 0.000000 -1.000000
vn 0.000000 0.000000 -1.000000
vn 0.000000 0.000000 -1.000000
vn 0.000000 0.000000 -1.000000
vn 0.000000 0.000000 -1.000000
vn 0.000000 0.000000 -1.000000
vn 0.000000 0.000000 -1.000000
vn 0.000000 0.000000 -1.000000
vn 0.000000 0.000000 -1.000000
vn 0.000000 0.000000 -1.000000
vn 0.000000 0.000000 -1.000000
vn 0.000000 0.000000 -1.000000
vn 0.000000 0.000000 -1.000000
vn 0.000000 0.000000 -1.000000
vn 0.000000 0.000000 -1.000000
vn 0.000000 0.000000 -1.000000
vn 0.000000 0.000000 -1.000000
vn 0.000000 0.000000 -1.000000
vn 0.000000 0.000000 -1.000000
vn 0.000000 0.000000 -1.000000
vn 0.000000 0.000000 -1.000000
vn 0.000000 0.000000 -1.000000
vn 0.000000 0.000000 -1.000000
vn 0.000000 0.000000 -1.000000
vn 0.000000 0.000000 -1.000000
vn 0.000000 0.000000 -1.000000
vn 0.000000 0.000000 -1.000000
vn 0.000000 0.000000 -1.000000
vn 0.000000 0.000000 -1.000000
vn 0.000000 0.000000 -1.000000
vn 0.000000 0.000000 -1.000000
vn 0.000000 0.000000 -1.000000
vn 0.000000 0.000000 -1.000000
vn 0.000000 0.000000 -1.000000
vn 0.000000 0.000000 -1.000000
vn 0.000000 0.000000 -1.000000
vn 0.000000 0.000000 -1.000000
vn 0.000000 0.000000 -1.000000
vn 0.000000 0.000000 -1.000000
vn 0.000000 0.000000 -1.000000
vn 0.000000 0.000000 -1.000000
vn 0.000000 0.000000 -1.000000
vn 0.000000 0.000000 -1.000000
vn 0.000000 0.000000 -1.000000
vn 0.000000 0.000000 -1.000000
vn 0.000000 0.000000 -1.000000
vn 0.000000 0.000000 -1.000000
vn 0.000000 0.000000 -1.000000
vn 0.000000 0.000000 -1.000000
vn 0.000000 0.000000 -1.000000
vn 0.000000 0.000000 -1.000000
vn 0.000000 0.000000 -1.000000
vn 0.000000 0.000000 -1.000000
vn 0.000000 0.000000 -1.000000
vn 0.000000 0.000000 -1.000000
vn 0.000000 0.000000 -1.000000
vn 0.000000 0.000000 -1.000000
vn 0.000000 0.000000 -1.000000
vn 0.000000 0.000000 -1.000000
vn 0.000000 0.000000 -1.000000
vn 0.000000 0.000000 -1.000000
vn 0.000000 0.000000 -1.000000
s off
g flag_skinny_1
usemtl polySurface2SG
f 20/1/1 19/4/2 7/3/3 6/2/4
f 9/5/5 4/8/6 11/7/7 10/6/8
f 23/9/9 24/12/10 14/11/11 13/10/12
f 16/13/13 5/16/14 18/15/15 17/14/16
f 7/3/17 3/18/18 8/17/19 6/2/20
f 8/17/21 4/8/22 9/5/23 6/2/24
f 9/5/25 25/19/26 20/1/27 6/2/28
f 11/7/29 1/21/30 12/20/31 10/6/32
f 12/20/33 27/23/34 26/22/35 10/6/36
f 26/22/37 25/19/38 9/5/39 10/6/40
f 14/11/41 2/25/42 15/24/43 13/10/44
f 15/24/45 5/16/46 16/13/47 13/10/48
f 16/13/49 22/26/50 23/9/51 13/10/52
f 18/15/53 3/18/54 7/3/55 17/14/56
f 7/3/57 19/4/58 21/27/59 17/14/60
f 21/27/61 22/26/62 16/13/63 17/14/64
